<svg width="35" height="34" viewBox="0 0 35 34" fill="none" xmlns="http://www.w3.org/2000/svg">
<path d="M24.7916 2.83337H10.2083C6.18122 2.83337 2.91663 6.00469 2.91663 9.91671V24.0834C2.91663 27.9954 6.18122 31.1667 10.2083 31.1667H24.7916C28.8187 31.1667 32.0833 27.9954 32.0833 24.0834V9.91671C32.0833 6.00469 28.8187 2.83337 24.7916 2.83337Z" stroke="black" stroke-width="2" stroke-linecap="round" stroke-linejoin="round"/>
<path d="M23.3333 16.1074C23.5133 17.2865 23.306 18.4906 22.7409 19.5485C22.1758 20.6065 21.2817 21.4644 20.1857 22.0003C19.0897 22.5362 17.8477 22.7227 16.6363 22.5333C15.425 22.344 14.3059 21.7884 13.4383 20.9456C12.5707 20.1028 11.9988 19.0157 11.8038 17.8389C11.6089 16.6621 11.8009 15.4556 12.3525 14.391C12.9042 13.3263 13.7873 12.4577 14.8764 11.9088C15.9655 11.3598 17.205 11.1584 18.4187 11.3333C19.6567 11.5116 20.8029 12.072 21.6879 12.9317C22.5728 13.7914 23.1497 14.9048 23.3333 16.1074Z" stroke="black" stroke-width="2" stroke-linecap="round" stroke-linejoin="round"/>
<path d="M25.5209 9.20837H25.5346" stroke="black" stroke-width="2" stroke-linecap="round" stroke-linejoin="round"/>
</svg>
