<svg width="35" height="40" viewBox="0 0 35 40" fill="none" xmlns="http://www.w3.org/2000/svg">
<path d="M32.8709 10.7C32.6976 9.90898 32.3448 9.18425 31.8481 8.59897C31.3513 8.01369 30.7282 7.5886 30.0417 7.36663C27.5334 6.66663 17.5 6.66663 17.5 6.66663C17.5 6.66663 7.46669 6.66663 4.95835 7.43329C4.27184 7.65527 3.64874 8.08036 3.15198 8.66564C2.65523 9.25091 2.30242 9.97564 2.12919 10.7666C1.67012 13.6759 1.44557 16.6271 1.45835 19.5833C1.44199 22.5617 1.66656 25.5355 2.12919 28.4666C2.32017 29.233 2.68088 29.9302 3.17648 30.4908C3.67208 31.0513 4.2858 31.4563 4.95835 31.6666C7.46669 32.4333 17.5 32.4333 17.5 32.4333C17.5 32.4333 27.5334 32.4333 30.0417 31.6666C30.7282 31.4447 31.3513 31.0196 31.8481 30.4343C32.3448 29.849 32.6976 29.1243 32.8709 28.3333C33.3264 25.4459 33.5509 22.5172 33.5417 19.5833C33.5581 16.6049 33.3335 13.6311 32.8709 10.7Z" stroke="black" stroke-width="2" stroke-linecap="round" stroke-linejoin="round"/>
<path d="M14.2188 25.0333L22.6042 19.5833L14.2188 14.1333V25.0333Z" stroke="black" stroke-width="2" stroke-linecap="round" stroke-linejoin="round"/>
</svg>
